<svg xmlns="http://www.w3.org/2000/svg" width="32" height="32" viewBox="0 0 96 96" role="img" aria-label="StoryTunes app mark">
  <defs>
    <linearGradient id="bg" x1="16" y1="8" x2="80" y2="92" gradientUnits="userSpaceOnUse">
      <stop stop-color="#2B1A14"/>
      <stop offset="1" stop-color="#1F120E"/>
    </linearGradient>
    <linearGradient id="gold" x1="38" y1="22" x2="68" y2="76" gradientUnits="userSpaceOnUse">
      <stop stop-color="#F0C86A"/>
      <stop offset="1" stop-color="#D9A441"/>
    </linearGradient>
    <filter id="softShadow" x="-20%" y="-20%" width="140%" height="140%">
      <feDropShadow dx="0" dy="3" stdDeviation="3" flood-color="#000000" flood-opacity="0.28"/>
    </filter>
  </defs>
  <rect x="6" y="6" width="84" height="84" rx="24" fill="url(#bg)"/>
  <path d="M63.5 22.5c-8.9 1.9-17.2 4.3-24.3 7.2v31.2c-2.4-1.1-5.7-1.1-8.9.2-5.3 2.1-8.2 6.7-6.5 10.3 1.7 3.6 7.3 4.7 12.6 2.6 4.5-1.8 7.3-5.3 7-8.5V43.4c6.4-2.5 11.9-4.2 17-5.3v17.1c-2.4-1-5.7-.9-8.9.3-5.3 2.1-8.2 6.7-6.5 10.3 1.7 3.6 7.3 4.7 12.6 2.6 4.7-1.9 7.5-5.6 6.9-8.9h.1V22.5z" fill="url(#gold)" filter="url(#softShadow)"/>
  <circle cx="69.5" cy="27.5" r="4.5" fill="#D9827C"/>
  <path d="M18 26c4.4-6.8 12.1-11.3 20.8-11.3" fill="none" stroke="#ffffff" stroke-width="2.2" stroke-linecap="round" opacity="0.18"/>
</svg>