<svg width="320" height="240" viewBox="0 0 320 240" fill="none" xmlns="http://www.w3.org/2000/svg" role="img" aria-labelledby="title desc">
  <title id="title">Page not found</title>
  <desc id="desc">A warm minimal 404 illustration with a broken music path, envelope, and drifting note.</desc>
  <g stroke="#C79740" stroke-width="3.4" stroke-linecap="round" stroke-linejoin="round">
    <path d="M54 154c29-31 55-31 78 0s52 31 81 0 52-31 72 0" opacity="0.55"/>
    <path d="M76 125l48 32a31 31 0 0 0 34 0l48-32" opacity="0.85"/>
    <path d="M76 125v49h130v-49" opacity="0.85"/>
    <path d="M76 125l50-33.8a30.5 30.5 0 0 1 34 0l46 31.2" opacity="0.85"/>
    <path d="M226 80v43"/>
    <path d="M226 80c7.1 8 14.4 9.9 21.2 10.6v12.8c-8.1-.3-15.4-3-21.2-9.6"/>
    <ellipse cx="208" cy="126" rx="14.5" ry="10.5"/>
  </g>
  <g fill="#372218" opacity="0.92">
    <path d="M67.5 71.7h-29a4 4 0 0 1-3.8-5.3L51.1 21a4 4 0 0 1 7.8 1.3v36.9h8.6a4 4 0 0 1 0 8h-8.6v13.1a4 4 0 1 1-8 0V67.2h-16a4 4 0 0 1-3.8-5.3L51 6.7v52.5h16.5a4 4 0 0 1 0 12.5z"/>
    <path d="M152 82.5c-18.2 0-31.4-16.5-31.4-39.1S133.8 4.3 152 4.3s31.4 16.4 31.4 39.1S170.2 82.5 152 82.5zm0-11.6c10.6 0 18.1-11.4 18.1-27.5S162.6 15.9 152 15.9s-18.1 11.4-18.1 27.5S141.4 70.9 152 70.9z"/>
    <path d="M283.5 71.7h-29a4 4 0 0 1-3.8-5.3L267.1 21a4 4 0 0 1 7.8 1.3v36.9h8.6a4 4 0 0 1 0 8h-8.6v13.1a4 4 0 1 1-8 0V67.2h-16a4 4 0 0 1-3.8-5.3L267 6.7v52.5h16.5a4 4 0 0 1 0 12.5z"/>
  </g>
  <circle cx="244" cy="151" r="4" fill="#CA7A69" opacity="0.7"/>
  <circle cx="95" cy="191" r="3" fill="#E8C779" opacity="0.8"/>
  <circle cx="276" cy="105" r="2.5" fill="#E8C779" opacity="0.75"/>
</svg>
