<svg width="240" height="180" viewBox="0 0 240 180" fill="none" xmlns="http://www.w3.org/2000/svg" role="img" aria-labelledby="title desc">
  <title id="title">No songs yet</title>
  <desc id="desc">A minimal warm line illustration of an open envelope with a music note drifting upward.</desc>
  <g opacity="0.98" stroke="#C79740" stroke-width="3.2" stroke-linecap="round" stroke-linejoin="round">
    <path d="M48 104l51.8 34.2a36.6 36.6 0 0 0 40.4 0L192 104" opacity="0.9"/>
    <path d="M48 104v46h144v-46" opacity="0.9"/>
    <path d="M48 104l54.2-36.4a31.8 31.8 0 0 1 35.6 0L192 104" opacity="0.9"/>
    <path d="M48 150l51.8-35.2" opacity="0.55"/>
    <path d="M192 150l-51.8-35.2" opacity="0.55"/>
    <path d="M130 31v46.5" />
    <path d="M130 31c7.4 8.3 15.2 10.5 22.2 11.2v13.5c-8.5-.4-16.2-3.2-22.2-10.1" />
    <ellipse cx="111.5" cy="79.5" rx="15.5" ry="11.5" />
    <path d="M100 34c-10.4 5.1-17.6 14.6-19.3 25.7" opacity="0.45"/>
    <path d="M164 72c10.2 4.8 17.2 13.5 19.2 24" opacity="0.45"/>
  </g>
  <circle cx="78" cy="51" r="4" fill="#CA7A69" opacity="0.75"/>
  <circle cx="185" cy="78" r="3" fill="#E8C779" opacity="0.75"/>
  <circle cx="58" cy="82" r="2.5" fill="#E8C779" opacity="0.7"/>
</svg>
